<svg version="1.1" id="Layer_1" xmlns="http://www.w3.org/2000/svg" xmlns:xlink="http://www.w3.org/1999/xlink" x="0px" y="0px"
	 width="100%" viewBox="0 0 180 180" enable-background="new 0 0 180 180" xml:space="preserve">
<path fill="#0A0B17" opacity="1.000000" stroke="none" 
	d="
M128.000000,181.000000 
	C85.333336,181.000000 43.166672,181.000000 1.000006,181.000000 
	C1.000004,121.000008 1.000004,61.000011 1.000002,1.000014 
	C60.999989,1.000009 120.999977,1.000009 180.999969,1.000005 
	C180.999985,60.999985 180.999985,120.999969 181.000000,180.999969 
	C163.500000,181.000000 146.000000,181.000000 128.000000,181.000000 
M99.803856,75.960571 
	C99.752800,72.965347 99.701744,69.970131 99.845985,66.077309 
	C99.845985,62.449551 99.845985,58.821789 99.845985,54.895485 
	C95.533562,54.895485 91.635445,54.895485 87.597656,54.895485 
	C87.597656,60.483269 87.597656,65.756187 87.368187,71.900558 
	C87.453094,74.294968 87.537994,76.689384 87.386932,79.958679 
	C87.468246,83.300415 87.549561,86.642143 87.354240,90.878082 
	C87.432426,95.586334 87.510612,100.294579 87.354507,105.781212 
	C87.036240,112.380104 83.263344,115.928986 76.312149,117.243965 
	C74.396446,116.751953 71.800545,116.882317 70.682526,115.660431 
	C65.785370,110.308327 61.338097,114.105186 56.297775,115.497795 
	C60.333866,123.891624 66.697327,128.040070 75.416420,128.352478 
	C84.531609,128.679092 92.156235,125.867989 96.942062,116.586899 
	C97.834229,111.964432 98.726395,107.341957 99.804146,101.854324 
	C99.737114,97.558502 99.670074,93.262680 99.780029,88.117050 
	C99.715530,84.303017 99.651039,80.488976 99.803856,75.960571 
M131.840210,65.790016 
	C137.446625,67.214478 143.053024,68.638939 149.518051,70.281555 
	C150.079391,69.546890 151.458984,67.741341 153.405121,65.458740 
	C153.343018,64.348198 153.731430,62.831764 153.151352,62.187878 
	C144.189285,52.240074 124.104652,52.207855 114.360924,62.311836 
	C112.853394,66.558212 111.345871,70.804581 109.677704,75.873138 
	C110.012482,82.713509 113.253555,87.712334 119.659630,91.475800 
	C123.991592,93.460892 128.465790,95.190948 132.614471,97.504669 
	C136.558350,99.704178 140.161942,102.513847 143.933212,105.890533 
	C144.256104,112.876328 141.593460,116.787666 135.039810,116.980095 
	C130.561508,117.111588 125.911926,115.947693 121.570801,114.610275 
	C118.698097,113.725243 116.236053,111.507271 113.303810,109.710602 
	C111.570923,111.895676 109.942955,113.948448 107.739906,116.433235 
	C108.281860,117.829453 108.422462,119.716057 109.431351,120.541756 
	C115.661331,125.640594 122.927719,128.155167 130.981430,128.375259 
	C142.677444,128.694916 151.414780,123.841873 155.832947,114.305061 
	C156.020187,110.440353 156.207443,106.575645 156.398911,102.057999 
	C155.038605,96.774605 152.104813,92.764595 146.563141,90.039642 
	C141.270462,87.631371 135.829575,85.494331 130.740311,82.713776 
	C127.654938,81.028061 125.113670,78.346512 122.346001,75.250618 
	C122.780754,68.971336 123.990807,67.628738 131.840210,65.790016 
M48.351460,54.693119 
	C42.719563,54.693119 37.087662,54.693119 31.489422,54.693119 
	C31.489422,73.076782 31.489422,90.962753 31.489422,109.581833 
	C41.306625,109.060989 50.749542,108.664215 60.173172,107.995537 
	C62.944176,107.798912 64.724045,106.424042 65.296677,103.038033 
	C66.039391,98.646263 69.289513,95.991470 73.730614,94.804520 
	C75.131950,94.429993 76.918571,93.518440 77.497635,92.344147 
	C85.537781,76.039513 74.309120,56.290310 56.291157,54.874443 
	C53.971939,54.692200 51.634041,54.747753 48.351460,54.693119 
M72.636642,112.131821 
	C78.154724,113.802170 82.237808,111.986328 83.056061,107.387566 
	C83.718430,103.664917 82.356323,100.216866 78.785576,99.531662 
	C76.210686,99.037567 72.334656,100.002014 70.565086,101.809776 
	C67.472038,104.969620 68.544258,108.813049 72.636642,112.131821 
z"/>
<path fill="#F9F9F9" opacity="1.000000" stroke="none" 
	d="
M48.828125,54.693130 
	C51.634041,54.747753 53.971939,54.692200 56.291157,54.874443 
	C74.309120,56.290310 85.537781,76.039513 77.497635,92.344147 
	C76.918571,93.518440 75.131950,94.429993 73.730614,94.804520 
	C69.289513,95.991470 66.039391,98.646263 65.296677,103.038033 
	C64.724045,106.424042 62.944176,107.798912 60.173172,107.995537 
	C50.749542,108.664215 41.306625,109.060989 31.489422,109.581833 
	C31.489422,90.962753 31.489422,73.076782 31.489422,54.693119 
	C37.087662,54.693119 42.719563,54.693119 48.828125,54.693130 
M44.190403,71.719086 
	C44.190403,80.136063 44.190403,88.553047 44.190403,97.324890 
	C51.472717,97.410187 58.470497,98.619118 63.044846,91.631248 
	C66.623077,86.165070 66.526230,76.236374 62.752163,71.247772 
	C57.927155,64.870033 51.099842,66.441475 44.190159,66.296303 
	C44.190159,68.183578 44.190159,69.480286 44.190403,71.719086 
z"/>
<path fill="#B25BFA" opacity="1.000000" stroke="none" 
	d="
M155.377609,114.822281 
	C151.414780,123.841873 142.677444,128.694916 130.981430,128.375259 
	C122.927719,128.155167 115.661331,125.640594 109.431351,120.541756 
	C108.422462,119.716057 108.281860,117.829453 108.445892,116.223358 
	C111.285164,116.213997 113.427017,116.348793 115.550255,116.626183 
	C125.746521,117.958237 135.908737,119.171066 146.086884,116.258781 
	C149.076080,115.403481 152.274872,115.280746 155.377609,114.822281 
z"/>
<path fill="#B15AF7" opacity="1.000000" stroke="none" 
	d="
M96.462860,117.058861 
	C92.156235,125.867989 84.531609,128.679092 75.416420,128.352478 
	C66.697327,128.040070 60.333866,123.891624 56.297775,115.497795 
	C61.338097,114.105186 65.785370,110.308327 70.682526,115.660431 
	C71.800545,116.882317 74.396446,116.751953 77.056427,117.508026 
	C84.021423,117.534348 90.242142,117.296600 96.462860,117.058861 
z"/>
<path fill="#F7D75C" opacity="1.000000" stroke="none" 
	d="
M119.243340,90.969460 
	C113.253555,87.712334 110.012482,82.713509 110.210068,75.453201 
	C114.604271,75.392960 118.466118,75.752655 122.327957,76.112343 
	C125.113670,78.346512 127.654938,81.028061 130.740311,82.713776 
	C135.829575,85.494331 141.270462,87.631371 146.392578,90.383667 
	C137.255539,93.755737 128.250977,92.533730 119.243340,90.969460 
z"/>
<path fill="#F95B5A" opacity="1.000000" stroke="none" 
	d="
M114.964439,62.015530 
	C124.104652,52.207855 144.189285,52.240074 153.151352,62.187878 
	C153.731430,62.831764 153.343018,64.348198 152.719177,65.641533 
	C145.022537,65.541801 138.011826,65.259277 130.726852,64.701599 
	C125.289864,63.622807 120.127151,62.819168 114.964439,62.015530 
z"/>
<path fill="#5CF699" opacity="1.000000" stroke="none" 
	d="
M119.451485,91.222626 
	C128.250977,92.533730 137.255539,93.755737 146.627533,90.606239 
	C152.104813,92.764595 155.038605,96.774605 156.033539,102.464661 
	C151.750488,103.599297 147.832809,104.327271 143.915146,105.055237 
	C140.161942,102.513847 136.558350,99.704178 132.614471,97.504669 
	C128.465790,95.190948 123.991592,93.460892 119.451485,91.222626 
z"/>
<path fill="#5A68F3" opacity="1.000000" stroke="none" 
	d="
M143.924179,105.472885 
	C147.832809,104.327271 151.750488,103.599297 156.031418,102.791130 
	C156.207443,106.575645 156.020187,110.440353 155.605286,114.563667 
	C152.274872,115.280746 149.076080,115.403481 146.086884,116.258781 
	C135.908737,119.171066 125.746521,117.958237 115.550255,116.626183 
	C113.427017,116.348793 111.285164,116.213997 108.733437,116.007355 
	C109.942955,113.948448 111.570923,111.895676 113.303810,109.710602 
	C116.236053,111.507271 118.698097,113.725243 121.570801,114.610275 
	C125.911926,115.947693 130.561508,117.111588 135.039810,116.980095 
	C141.593460,116.787666 144.256104,112.876328 143.924179,105.472885 
z"/>
<path fill="#5A68F3" opacity="1.000000" stroke="none" 
	d="
M96.702461,116.822876 
	C90.242142,117.296600 84.021423,117.534348 77.457474,117.576042 
	C83.263344,115.928986 87.036240,112.380104 87.836914,105.368515 
	C92.085739,104.210373 95.852150,103.464928 99.618568,102.719490 
	C98.726395,107.341957 97.834229,111.964432 96.702461,116.822876 
z"/>
<path fill="#E95B55" opacity="1.000000" stroke="none" 
	d="
M87.597656,71.029099 
	C87.597656,65.756187 87.597656,60.483269 87.597656,54.895485 
	C91.635445,54.895485 95.533562,54.895485 99.845985,54.895485 
	C99.845985,58.821789 99.845985,62.449551 99.378235,66.535301 
	C95.139542,68.338562 91.368599,69.683830 87.597656,71.029099 
z"/>
<path fill="#F19052" opacity="1.000000" stroke="none" 
	d="
M114.662682,62.163681 
	C120.127151,62.819168 125.289864,63.622807 130.711853,64.876198 
	C130.971115,65.325951 130.975494,65.675888 130.975494,65.675888 
	C123.990807,67.628738 122.780754,68.971336 122.336975,75.681480 
	C118.466118,75.752655 114.604271,75.392960 110.290390,75.042107 
	C111.345871,70.804581 112.853394,66.558212 114.662682,62.163681 
z"/>
<path fill="#59F097" opacity="1.000000" stroke="none" 
	d="
M99.711357,102.286911 
	C95.852150,103.464928 92.085739,104.210373 87.954056,104.979324 
	C87.510612,100.294579 87.432426,95.586334 87.885849,90.440147 
	C92.145988,89.657097 95.874512,89.311981 99.603043,88.966858 
	C99.670074,93.262680 99.737114,97.558502 99.711357,102.286911 
z"/>
<path fill="#F3F3F4" opacity="1.000000" stroke="none" 
	d="
M72.292480,111.933746 
	C68.544258,108.813049 67.472038,104.969620 70.565086,101.809776 
	C72.334656,100.002014 76.210686,99.037567 78.785576,99.531662 
	C82.356323,100.216866 83.718430,103.664917 83.056061,107.387566 
	C82.237808,111.986328 78.154724,113.802170 72.292480,111.933746 
z"/>
<path fill="#FDDB5D" opacity="1.000000" stroke="none" 
	d="
M99.691536,88.541962 
	C95.874512,89.311981 92.145988,89.657097 88.024170,89.993042 
	C87.549561,86.642143 87.468246,83.300415 87.865570,79.463356 
	C92.091644,78.203667 95.839096,77.439301 99.586548,76.674942 
	C99.651039,80.488976 99.715530,84.303017 99.691536,88.541962 
z"/>
<path fill="#F19052" opacity="1.000000" stroke="none" 
	d="
M99.695206,76.317749 
	C95.839096,77.439301 92.091644,78.203667 87.983551,79.025909 
	C87.537994,76.689384 87.453094,74.294968 87.482925,71.464828 
	C91.368599,69.683830 95.139542,68.338562 99.280586,66.984100 
	C99.701744,69.970131 99.752800,72.965347 99.695206,76.317749 
z"/>
<path fill="#E4844F" opacity="1.000000" stroke="none" 
	d="
M131.407852,65.732956 
	C130.975494,65.675888 130.971115,65.325951 130.986115,65.151352 
	C138.011826,65.259277 145.022537,65.541801 152.435913,65.880058 
	C151.458984,67.741341 150.079391,69.546890 149.518051,70.281555 
	C143.053024,68.638939 137.446625,67.214478 131.407852,65.732956 
z"/>
<path fill="#11121D" opacity="1.000000" stroke="none" 
	d="
M44.190281,71.248047 
	C44.190159,69.480286 44.190159,68.183578 44.190159,66.296303 
	C51.099842,66.441475 57.927155,64.870033 62.752163,71.247772 
	C66.526230,76.236374 66.623077,86.165070 63.044846,91.631248 
	C58.470497,98.619118 51.472717,97.410187 44.190403,97.324890 
	C44.190403,88.553047 44.190403,80.136063 44.190281,71.248047 
z"/>
</svg>